<?xml version="1.0" encoding="UTF-8" standalone="no"?>
<!DOCTYPE svg PUBLIC "-//W3C//DTD SVG 1.1//EN"
 "http://www.w3.org/Graphics/SVG/1.1/DTD/svg11.dtd">
<!-- Generated by graphviz version 2.40.1 (20161225.0304)
 -->
<!-- Title: %3 Pages: 1 -->
<svg width="275pt" height="290pt"
 viewBox="0.00 0.00 274.76 289.82" xmlns="http://www.w3.org/2000/svg" xmlns:xlink="http://www.w3.org/1999/xlink">
<g id="graph0" class="graph" transform="scale(1 1) rotate(0) translate(4 285.8234)">
<title>%3</title>
<polygon fill="#ffffff" stroke="transparent" points="-4,4 -4,-285.8234 270.7596,-285.8234 270.7596,4 -4,4"/>
<!-- icinga2 -->
<g id="node1" class="node">
<title>icinga2</title>
<ellipse fill="none" stroke="#000000" cx="93.7674" cy="-263.8234" rx="38.671" ry="18"/>
<text text-anchor="middle" x="93.7674" y="-259.6234" font-family="Times,serif" font-size="14.00" fill="#000000">Icinga 2</text>
</g>
<!-- mysql -->
<g id="node2" class="node">
<title>mysql</title>
<ellipse fill="none" stroke="#000000" cx="43.7674" cy="-97.4558" rx="43.5361" ry="25.4118"/>
<text text-anchor="middle" x="43.7674" y="-100.2558" font-family="Times,serif" font-size="14.00" fill="#000000">MySQL</text>
<text text-anchor="middle" x="43.7674" y="-86.2558" font-family="Times,serif" font-size="14.00" fill="#000000">(IDO)</text>
</g>
<!-- icinga2&#45;&gt;mysql -->
<g id="edge1" class="edge">
<title>icinga2&#45;&gt;mysql</title>
<path fill="none" stroke="#000000" d="M74.1468,-248.0404C63.6065,-238.2794 51.6065,-224.7794 45.7674,-209.8234 36.2724,-185.5033 36.1569,-155.9076 38.2098,-133.1957"/>
<polygon fill="#000000" stroke="#000000" points="41.72,-133.2906 39.3197,-122.9712 34.7609,-132.5351 41.72,-133.2906"/>
</g>
<!-- influxdb -->
<g id="node4" class="node">
<title>influxdb</title>
<ellipse fill="none" stroke="#000000" cx="160.7674" cy="-184.3675" rx="105.9843" ry="25.4118"/>
<text text-anchor="middle" x="160.7674" y="-187.1675" font-family="Times,serif" font-size="14.00" fill="#000000">InfluxDB</text>
<text text-anchor="middle" x="160.7674" y="-173.1675" font-family="Times,serif" font-size="14.00" fill="#000000">(check results&#39; perfdata)</text>
</g>
<!-- icinga2&#45;&gt;influxdb -->
<g id="edge3" class="edge">
<title>icinga2&#45;&gt;influxdb</title>
<path fill="none" stroke="#000000" d="M107.9764,-246.9728C115.3228,-238.2607 124.5468,-227.3219 133.2206,-217.0355"/>
<polygon fill="#000000" stroke="#000000" points="135.9354,-219.2454 139.7061,-209.3443 130.584,-214.7329 135.9354,-219.2454"/>
</g>
<!-- icingaweb2 -->
<g id="node3" class="node">
<title>icingaweb2</title>
<ellipse fill="none" stroke="#000000" cx="93.7674" cy="-18" rx="56.7612" ry="18"/>
<text text-anchor="middle" x="93.7674" y="-13.8" font-family="Times,serif" font-size="14.00" fill="#000000">Icinga Web 2</text>
</g>
<!-- mysql&#45;&gt;icingaweb2 -->
<g id="edge2" class="edge">
<title>mysql&#45;&gt;icingaweb2</title>
<path fill="none" stroke="#000000" d="M59.0408,-73.1847C64.7863,-64.0543 71.344,-53.6335 77.2018,-44.3248"/>
<polygon fill="#000000" stroke="#000000" points="80.1905,-46.1469 82.5542,-35.8191 74.2659,-42.4186 80.1905,-46.1469"/>
</g>
<!-- grafana -->
<g id="node5" class="node">
<title>grafana</title>
<ellipse fill="none" stroke="#000000" cx="151.7674" cy="-97.4558" rx="38.6609" ry="18"/>
<text text-anchor="middle" x="151.7674" y="-93.2558" font-family="Times,serif" font-size="14.00" fill="#000000">Grafana</text>
</g>
<!-- influxdb&#45;&gt;grafana -->
<g id="edge4" class="edge">
<title>influxdb&#45;&gt;grafana</title>
<path fill="none" stroke="#000000" d="M158.1158,-158.7612C157.0347,-148.3212 155.7813,-136.2177 154.6753,-125.5367"/>
<polygon fill="#000000" stroke="#000000" points="158.1417,-125.0305 153.6302,-115.4442 151.1789,-125.7516 158.1417,-125.0305"/>
</g>
<!-- grafana&#45;&gt;icingaweb2 -->
<g id="edge5" class="edge">
<title>grafana&#45;&gt;icingaweb2</title>
<path fill="none" stroke="#000000" d="M139.1823,-80.2151C131.4611,-69.6376 121.4251,-55.889 112.7517,-44.0071"/>
<polygon fill="#000000" stroke="#000000" points="115.4525,-41.7707 106.7296,-35.7573 109.7986,-45.8979 115.4525,-41.7707"/>
</g>
</g>
</svg>
